<svg xmlns="http://www.w3.org/2000/svg" xmlns:xlink="http://www.w3.org/1999/xlink" width="500" zoomAndPan="magnify" viewBox="0 0 375 374.999991" height="500" preserveAspectRatio="xMidYMid meet" version="1.0"><defs><g/><clipPath id="fa23334e54"><path d="M 145.023438 194.019531 L 157.300781 194.019531 L 157.300781 206.296875 L 145.023438 206.296875 Z M 145.023438 194.019531 " clip-rule="nonzero"/></clipPath><clipPath id="a11c99964c"><path d="M 151.164062 194.019531 C 147.773438 194.019531 145.023438 196.765625 145.023438 200.15625 C 145.023438 203.546875 147.773438 206.296875 151.164062 206.296875 C 154.554688 206.296875 157.300781 203.546875 157.300781 200.15625 C 157.300781 196.765625 154.554688 194.019531 151.164062 194.019531 Z M 151.164062 194.019531 " clip-rule="nonzero"/></clipPath><clipPath id="35d252512d"><path d="M 0.0234375 0.0195312 L 12.300781 0.0195312 L 12.300781 12.296875 L 0.0234375 12.296875 Z M 0.0234375 0.0195312 " clip-rule="nonzero"/></clipPath><clipPath id="d700e4966d"><path d="M 6.164062 0.0195312 C 2.773438 0.0195312 0.0234375 2.765625 0.0234375 6.15625 C 0.0234375 9.546875 2.773438 12.296875 6.164062 12.296875 C 9.554688 12.296875 12.300781 9.546875 12.300781 6.15625 C 12.300781 2.765625 9.554688 0.0195312 6.164062 0.0195312 Z M 6.164062 0.0195312 " clip-rule="nonzero"/></clipPath><clipPath id="6808cde6ed"><rect x="0" width="13" y="0" height="13"/></clipPath><clipPath id="ec83f5fee9"><path d="M 12 158 L 74 158 L 74 207 L 12 207 Z M 12 158 " clip-rule="nonzero"/></clipPath><clipPath id="4aa55ede2f"><path d="M 23.363281 158.246094 L 73.6875 175.65625 L 63.144531 206.132812 L 12.820312 188.726562 Z M 23.363281 158.246094 " clip-rule="nonzero"/></clipPath><clipPath id="d73caae419"><path d="M 23 23 L 59 23 L 59 33 L 23 33 Z M 23 23 " clip-rule="nonzero"/></clipPath><clipPath id="218d32d732"><path d="M 11.363281 0.246094 L 61.6875 17.65625 L 51.144531 48.132812 L 0.820312 30.726562 Z M 11.363281 0.246094 " clip-rule="nonzero"/></clipPath><clipPath id="e484e596fe"><path d="M 51.460938 48.292969 L 1.136719 30.882812 L 11.679688 0.40625 L 62.003906 17.816406 Z M 51.460938 48.292969 " clip-rule="nonzero"/></clipPath><clipPath id="35793cd3c3"><path d="M 51.460938 48.292969 L 1.136719 30.882812 L 11.679688 0.40625 L 62.003906 17.816406 Z M 51.460938 48.292969 " clip-rule="nonzero"/></clipPath><clipPath id="e527e3a107"><path d="M 1 17 L 61.921875 17 L 61.921875 32 L 1 32 Z M 1 17 " clip-rule="nonzero"/></clipPath><clipPath id="5844409ae4"><path d="M 11.363281 0.246094 L 61.6875 17.65625 L 51.144531 48.132812 L 0.820312 30.726562 Z M 11.363281 0.246094 " clip-rule="nonzero"/></clipPath><clipPath id="81974ea425"><path d="M 51.460938 48.292969 L 1.136719 30.882812 L 11.679688 0.40625 L 62.003906 17.816406 Z M 51.460938 48.292969 " clip-rule="nonzero"/></clipPath><clipPath id="84718583d4"><path d="M 51.460938 48.292969 L 1.136719 30.882812 L 11.679688 0.40625 L 62.003906 17.816406 Z M 51.460938 48.292969 " clip-rule="nonzero"/></clipPath><clipPath id="fcc3dda0f0"><path d="M 25 11 L 44 11 L 44 15 L 25 15 Z M 25 11 " clip-rule="nonzero"/></clipPath><clipPath id="c1d9895e7e"><path d="M 11.363281 0.246094 L 61.6875 17.65625 L 51.144531 48.132812 L 0.820312 30.726562 Z M 11.363281 0.246094 " clip-rule="nonzero"/></clipPath><clipPath id="35373dcbe5"><path d="M 51.460938 48.292969 L 1.136719 30.882812 L 11.679688 0.40625 L 62.003906 17.816406 Z M 51.460938 48.292969 " clip-rule="nonzero"/></clipPath><clipPath id="da1daac444"><path d="M 51.460938 48.292969 L 1.136719 30.882812 L 11.679688 0.40625 L 62.003906 17.816406 Z M 51.460938 48.292969 " clip-rule="nonzero"/></clipPath><clipPath id="74ce913c09"><rect x="0" width="62" y="0" height="49"/></clipPath><clipPath id="044d1fa397"><rect x="0" width="46" y="0" height="76"/></clipPath><clipPath id="6beff6fdeb"><rect x="0" width="176" y="0" height="76"/></clipPath><clipPath id="886c9f1eb9"><rect x="0" width="223" y="0" height="17"/></clipPath></defs><rect x="-37.5" width="450" fill="#ffffff" y="-37.499999" height="449.999989" fill-opacity="1"/><rect x="-37.5" width="450" fill="#eeedea" y="-37.499999" height="449.999989" fill-opacity="1"/><g clip-path="url(#fa23334e54)"><g clip-path="url(#a11c99964c)"><g transform="matrix(1, 0, 0, 1, 145, 194)"><g clip-path="url(#6808cde6ed)"><g clip-path="url(#35d252512d)"><g clip-path="url(#d700e4966d)"><path fill="#1b1b1b" d="M 0.0234375 0.0195312 L 12.300781 0.0195312 L 12.300781 12.296875 L 0.0234375 12.296875 Z M 0.0234375 0.0195312 " fill-opacity="1" fill-rule="nonzero"/></g></g></g></g></g></g><g clip-path="url(#ec83f5fee9)"><g clip-path="url(#4aa55ede2f)"><g transform="matrix(1, 0, 0, 1, 12, 158)"><g clip-path="url(#74ce913c09)"><g clip-path="url(#d73caae419)"><g clip-path="url(#218d32d732)"><g clip-path="url(#e484e596fe)"><g clip-path="url(#35793cd3c3)"><path fill="#000000" d="M 24.492188 32.761719 C 24.695312 32.835938 24.925781 32.824219 25.132812 32.710938 C 34.96875 27.425781 45.808594 24.753906 57.644531 24.699219 C 58.085938 24.695312 58.445312 24.332031 58.445312 23.890625 C 58.441406 23.539062 58.21875 23.238281 57.90625 23.132812 C 57.820312 23.101562 57.734375 23.085938 57.640625 23.085938 C 45.539062 23.144531 34.453125 25.878906 24.378906 31.292969 C 23.988281 31.503906 23.839844 31.992188 24.046875 32.382812 C 24.144531 32.570312 24.308594 32.699219 24.492188 32.761719 Z M 24.492188 32.761719 " fill-opacity="1" fill-rule="nonzero"/></g></g></g></g><g clip-path="url(#e527e3a107)"><g clip-path="url(#5844409ae4)"><g clip-path="url(#81974ea425)"><g clip-path="url(#84718583d4)"><path fill="#000000" d="M 2.046875 31.203125 C 2.296875 31.289062 2.585938 31.25 2.808594 31.074219 C 8.714844 26.367188 16.359375 23.140625 25.742188 21.394531 C 38.371094 19.117188 49.960938 18.609375 60.503906 19.875 C 60.945312 19.925781 61.34375 19.613281 61.398438 19.171875 C 61.445312 18.789062 61.214844 18.433594 60.867188 18.3125 C 60.8125 18.296875 60.757812 18.28125 60.699219 18.277344 C 49.996094 16.992188 38.25 17.503906 25.457031 19.8125 L 25.453125 19.8125 C 15.808594 21.609375 7.929688 24.941406 1.816406 29.8125 C 1.46875 30.089844 1.410156 30.59375 1.683594 30.945312 C 1.78125 31.066406 1.910156 31.15625 2.046875 31.203125 Z M 2.046875 31.203125 " fill-opacity="1" fill-rule="nonzero"/></g></g></g></g><g clip-path="url(#fcc3dda0f0)"><g clip-path="url(#c1d9895e7e)"><g clip-path="url(#35373dcbe5)"><g clip-path="url(#da1daac444)"><path fill="#000000" d="M 26.21875 14.722656 C 26.347656 14.765625 26.492188 14.777344 26.636719 14.75 C 32.796875 13.539062 38.226562 12.910156 42.921875 12.875 C 43.363281 12.871094 43.71875 12.507812 43.71875 12.0625 C 43.714844 11.710938 43.492188 11.414062 43.179688 11.308594 C 43.097656 11.277344 43.007812 11.261719 42.914062 11.261719 C 38.117188 11.300781 32.589844 11.9375 26.332031 13.171875 C 25.894531 13.257812 25.613281 13.679688 25.695312 14.117188 C 25.753906 14.40625 25.960938 14.632812 26.21875 14.722656 Z M 26.21875 14.722656 " fill-opacity="1" fill-rule="nonzero"/></g></g></g></g></g></g></g></g><g transform="matrix(1, 0, 0, 1, 72, 127)"><g clip-path="url(#044d1fa397)"><g fill="#1b1b1b" fill-opacity="1"><g transform="translate(0.347878, 59.614844)"><g><path d="M 0.578125 -0.8125 C 0.578125 -1.300781 1.03125 -1.617188 1.9375 -1.765625 L 3.828125 -2.0625 C 4.390625 -2.144531 4.894531 -2.382812 5.34375 -2.78125 C 5.789062 -3.175781 6.175781 -3.847656 6.5 -4.796875 C 6.695312 -5.671875 6.976562 -6.816406 7.34375 -8.234375 C 7.707031 -9.648438 8.132812 -11.238281 8.625 -13 C 9.113281 -14.757812 9.625 -16.601562 10.15625 -18.53125 C 10.695312 -20.46875 11.234375 -22.40625 11.765625 -24.34375 C 12.304688 -26.289062 12.804688 -28.148438 13.265625 -29.921875 C 13.734375 -31.691406 14.140625 -33.296875 14.484375 -34.734375 C 14.828125 -36.171875 15.082031 -37.335938 15.25 -38.234375 C 15.40625 -38.878906 15.390625 -39.367188 15.203125 -39.703125 C 15.023438 -40.035156 14.632812 -40.265625 14.03125 -40.390625 L 12.296875 -40.75 C 11.804688 -40.851562 11.46875 -40.960938 11.28125 -41.078125 C 11.101562 -41.203125 11.015625 -41.394531 11.015625 -41.65625 C 11.015625 -42.226562 11.503906 -42.515625 12.484375 -42.515625 L 26.421875 -42.515625 C 28.585938 -42.515625 30.613281 -42.191406 32.5 -41.546875 C 34.394531 -40.910156 36.097656 -39.992188 37.609375 -38.796875 C 39.117188 -37.609375 40.367188 -36.164062 41.359375 -34.46875 C 42.347656 -32.769531 43.023438 -30.851562 43.390625 -28.71875 C 43.753906 -26.582031 43.742188 -24.257812 43.359375 -21.75 C 42.816406 -18.34375 41.765625 -15.289062 40.203125 -12.59375 C 38.648438 -9.90625 36.691406 -7.625 34.328125 -5.75 C 31.972656 -3.882812 29.285156 -2.457031 26.265625 -1.46875 C 23.253906 -0.488281 20.015625 0 16.546875 0 L 1.640625 0 C 1.234375 0 0.953125 -0.0703125 0.796875 -0.21875 C 0.648438 -0.375 0.578125 -0.570312 0.578125 -0.8125 Z M 16.921875 -1.875 C 19.753906 -1.875 22.382812 -2.332031 24.8125 -3.25 C 27.238281 -4.175781 29.398438 -5.507812 31.296875 -7.25 C 33.203125 -9 34.773438 -11.101562 36.015625 -13.5625 C 37.265625 -16.019531 38.125 -18.785156 38.59375 -21.859375 C 39.0625 -24.898438 39.039062 -27.59375 38.53125 -29.9375 C 38.03125 -32.289062 37.164062 -34.269531 35.9375 -35.875 C 34.71875 -37.488281 33.257812 -38.707031 31.5625 -39.53125 C 29.875 -40.363281 28.085938 -40.78125 26.203125 -40.78125 L 22.46875 -40.78125 C 21.289062 -40.78125 20.503906 -40.144531 20.109375 -38.875 C 19.921875 -37.976562 19.628906 -36.796875 19.234375 -35.328125 C 18.835938 -33.859375 18.378906 -32.195312 17.859375 -30.34375 C 17.347656 -28.5 16.804688 -26.5625 16.234375 -24.53125 C 15.671875 -22.507812 15.109375 -20.484375 14.546875 -18.453125 C 13.984375 -16.429688 13.457031 -14.503906 12.96875 -12.671875 C 12.476562 -10.847656 12.0625 -9.207031 11.71875 -7.75 C 11.375 -6.289062 11.140625 -5.125 11.015625 -4.25 C 10.898438 -3.4375 10.972656 -2.835938 11.234375 -2.453125 C 11.492188 -2.066406 11.988281 -1.875 12.71875 -1.875 Z M 16.921875 -1.875 "/></g></g></g></g></g><g transform="matrix(1, 0, 0, 1, 163, 127)"><g clip-path="url(#6beff6fdeb)"><g fill="#1b1b1b" fill-opacity="1"><g transform="translate(0.918402, 59.614844)"><g><path d="M 8.5625 -35.21875 C 7.570312 -35.21875 6.75 -35.519531 6.09375 -36.125 C 5.4375 -36.738281 5.109375 -37.507812 5.109375 -38.4375 C 5.109375 -39.351562 5.4375 -40.113281 6.09375 -40.71875 C 6.75 -41.332031 7.570312 -41.640625 8.5625 -41.640625 C 9.570312 -41.640625 10.40625 -41.328125 11.0625 -40.703125 C 11.726562 -40.085938 12.0625 -39.332031 12.0625 -38.4375 C 12.0625 -37.507812 11.726562 -36.738281 11.0625 -36.125 C 10.40625 -35.519531 9.570312 -35.21875 8.5625 -35.21875 Z M 11.390625 -27.328125 L 11.390625 -3.515625 C 11.390625 -3.054688 11.503906 -2.695312 11.734375 -2.4375 C 11.972656 -2.1875 12.300781 -2.007812 12.71875 -1.90625 L 14.328125 -1.609375 C 14.992188 -1.460938 15.328125 -1.179688 15.328125 -0.765625 C 15.328125 -0.253906 14.957031 0 14.21875 0 L 4.15625 0 C 3.445312 0 3.09375 -0.253906 3.09375 -0.765625 C 3.09375 -1.160156 3.414062 -1.429688 4.0625 -1.578125 L 5.734375 -1.90625 C 6.648438 -2.09375 7.109375 -2.628906 7.109375 -3.515625 L 7.109375 -23.8125 C 7.109375 -24.582031 6.785156 -24.972656 6.140625 -24.984375 L 3.609375 -25.046875 C 3.003906 -25.066406 2.703125 -25.28125 2.703125 -25.6875 C 2.703125 -25.875 2.769531 -26.03125 2.90625 -26.15625 C 3.050781 -26.289062 3.316406 -26.429688 3.703125 -26.578125 L 8.109375 -28.0625 C 8.628906 -28.238281 9.050781 -28.363281 9.375 -28.4375 C 9.707031 -28.507812 9.984375 -28.546875 10.203125 -28.546875 C 10.992188 -28.546875 11.390625 -28.140625 11.390625 -27.328125 Z M 11.390625 -27.328125 "/></g></g></g><g fill="#1b1b1b" fill-opacity="1"><g transform="translate(14.06356, 59.614844)"><g><path d="M 12.546875 -27.125 C 10.921875 -27.125 9.617188 -26.679688 8.640625 -25.796875 C 7.660156 -24.910156 7.171875 -23.75 7.171875 -22.3125 C 7.171875 -21.425781 7.378906 -20.628906 7.796875 -19.921875 C 8.222656 -19.210938 8.976562 -18.5625 10.0625 -17.96875 C 11.144531 -17.382812 12.648438 -16.832031 14.578125 -16.3125 C 17.085938 -15.675781 19.066406 -14.898438 20.515625 -13.984375 C 21.960938 -13.078125 23 -12.0625 23.625 -10.9375 C 24.25 -9.820312 24.5625 -8.59375 24.5625 -7.25 C 24.5625 -5.695312 24.179688 -4.320312 23.421875 -3.125 C 22.671875 -1.9375 21.566406 -1.003906 20.109375 -0.328125 C 18.648438 0.335938 16.882812 0.671875 14.8125 0.671875 C 13.664062 0.671875 12.695312 0.554688 11.90625 0.328125 C 11.113281 0.109375 10.445312 -0.101562 9.90625 -0.3125 C 9.375 -0.53125 8.894531 -0.640625 8.46875 -0.640625 C 8.082031 -0.640625 7.789062 -0.53125 7.59375 -0.3125 C 7.40625 -0.101562 7.226562 0.109375 7.0625 0.328125 C 6.90625 0.554688 6.664062 0.671875 6.34375 0.671875 C 6.144531 0.671875 5.976562 0.601562 5.84375 0.46875 C 5.707031 0.332031 5.582031 0.101562 5.46875 -0.21875 L 3.03125 -6.890625 C 2.894531 -7.296875 2.847656 -7.640625 2.890625 -7.921875 C 2.929688 -8.203125 3.113281 -8.40625 3.4375 -8.53125 C 3.957031 -8.738281 4.398438 -8.523438 4.765625 -7.890625 C 5.660156 -6.128906 6.632812 -4.757812 7.6875 -3.78125 C 8.738281 -2.800781 9.847656 -2.113281 11.015625 -1.71875 C 12.191406 -1.320312 13.410156 -1.125 14.671875 -1.125 C 16.773438 -1.125 18.351562 -1.570312 19.40625 -2.46875 C 20.457031 -3.375 20.984375 -4.585938 20.984375 -6.109375 C 20.984375 -6.992188 20.753906 -7.804688 20.296875 -8.546875 C 19.835938 -9.285156 19.039062 -9.976562 17.90625 -10.625 C 16.78125 -11.269531 15.175781 -11.867188 13.09375 -12.421875 C 10.757812 -13.023438 8.90625 -13.734375 7.53125 -14.546875 C 6.15625 -15.359375 5.164062 -16.316406 4.5625 -17.421875 C 3.96875 -18.535156 3.671875 -19.820312 3.671875 -21.28125 C 3.671875 -22.738281 4.03125 -24.039062 4.75 -25.1875 C 5.46875 -26.332031 6.488281 -27.234375 7.8125 -27.890625 C 9.144531 -28.546875 10.722656 -28.875 12.546875 -28.875 C 13.691406 -28.875 14.644531 -28.753906 15.40625 -28.515625 C 16.164062 -28.273438 16.785156 -28.03125 17.265625 -27.78125 C 17.753906 -27.539062 18.179688 -27.421875 18.546875 -27.421875 C 18.972656 -27.421875 19.28125 -27.539062 19.46875 -27.78125 C 19.664062 -28.03125 19.84375 -28.273438 20 -28.515625 C 20.164062 -28.753906 20.394531 -28.875 20.6875 -28.875 C 21.0625 -28.875 21.300781 -28.613281 21.40625 -28.09375 L 23.40625 -21.765625 C 23.550781 -21.304688 23.617188 -20.894531 23.609375 -20.53125 C 23.597656 -20.164062 23.421875 -19.921875 23.078125 -19.796875 C 22.796875 -19.710938 22.546875 -19.753906 22.328125 -19.921875 C 22.117188 -20.097656 21.90625 -20.398438 21.6875 -20.828125 C 20.632812 -23.054688 19.289062 -24.660156 17.65625 -25.640625 C 16.03125 -26.628906 14.328125 -27.125 12.546875 -27.125 Z M 12.546875 -27.125 "/></g></g></g><g fill="#1b1b1b" fill-opacity="1"><g transform="translate(37.106474, 59.614844)"><g><path d="M 10.53125 -27.328125 L 10.53125 -24.140625 C 11.925781 -25.660156 13.484375 -26.828125 15.203125 -27.640625 C 16.929688 -28.460938 18.75 -28.875 20.65625 -28.875 C 22.457031 -28.875 24.109375 -28.523438 25.609375 -27.828125 C 27.117188 -27.128906 28.425781 -26.140625 29.53125 -24.859375 C 30.632812 -23.585938 31.492188 -22.082031 32.109375 -20.34375 C 32.734375 -18.601562 33.046875 -16.703125 33.046875 -14.640625 C 33.046875 -12.265625 32.6875 -10.128906 31.96875 -8.234375 C 31.257812 -6.347656 30.273438 -4.738281 29.015625 -3.40625 C 27.765625 -2.082031 26.3125 -1.070312 24.65625 -0.375 C 23 0.320312 21.226562 0.671875 19.34375 0.671875 C 17.644531 0.671875 16.054688 0.347656 14.578125 -0.296875 C 13.097656 -0.953125 11.789062 -1.863281 10.65625 -3.03125 L 10.65625 10.625 C 10.65625 11.5625 11.101562 12.085938 12 12.203125 L 14.546875 12.546875 C 15.210938 12.679688 15.546875 12.960938 15.546875 13.390625 C 15.546875 13.898438 15.179688 14.15625 14.453125 14.15625 L 3.4375 14.15625 C 2.726562 14.15625 2.375 13.898438 2.375 13.390625 C 2.375 12.984375 2.695312 12.710938 3.34375 12.578125 L 5.015625 12.234375 C 5.921875 12.054688 6.375 11.519531 6.375 10.625 L 6.375 -23.8125 C 6.375 -24.582031 6.050781 -24.972656 5.40625 -24.984375 L 2.890625 -25.046875 C 2.273438 -25.066406 1.96875 -25.28125 1.96875 -25.6875 C 1.96875 -25.875 2.039062 -26.03125 2.1875 -26.15625 C 2.332031 -26.289062 2.59375 -26.429688 2.96875 -26.578125 L 7.25 -28.0625 C 7.757812 -28.238281 8.175781 -28.363281 8.5 -28.4375 C 8.820312 -28.507812 9.097656 -28.546875 9.328125 -28.546875 C 10.128906 -28.546875 10.53125 -28.140625 10.53125 -27.328125 Z M 19.09375 -26.453125 C 15.9375 -26.453125 13.125 -25.003906 10.65625 -22.109375 L 10.65625 -5.59375 C 11.726562 -4.25 12.960938 -3.222656 14.359375 -2.515625 C 15.753906 -1.804688 17.222656 -1.453125 18.765625 -1.453125 C 20.585938 -1.453125 22.234375 -1.925781 23.703125 -2.875 C 25.171875 -3.832031 26.332031 -5.25 27.1875 -7.125 C 28.050781 -9 28.484375 -11.320312 28.484375 -14.09375 C 28.484375 -16.757812 28.078125 -19.007812 27.265625 -20.84375 C 26.460938 -22.675781 25.347656 -24.066406 23.921875 -25.015625 C 22.503906 -25.972656 20.894531 -26.453125 19.09375 -26.453125 Z M 19.09375 -26.453125 "/></g></g></g><g fill="#1b1b1b" fill-opacity="1"><g transform="translate(68.741609, 59.614844)"><g><path d="M 3.609375 -6.28125 C 3.609375 -7.800781 4.066406 -9.160156 4.984375 -10.359375 C 5.910156 -11.566406 7.226562 -12.515625 8.9375 -13.203125 C 10.65625 -13.890625 12.707031 -14.234375 15.09375 -14.234375 C 16.289062 -14.234375 17.421875 -14.132812 18.484375 -13.9375 C 19.546875 -13.738281 20.519531 -13.476562 21.40625 -13.15625 L 21.40625 -21.015625 C 21.40625 -23.097656 20.890625 -24.679688 19.859375 -25.765625 C 18.828125 -26.847656 17.347656 -27.390625 15.421875 -27.390625 C 13.554688 -27.390625 12.175781 -27.003906 11.28125 -26.234375 C 10.382812 -25.460938 9.9375 -24.5625 9.9375 -23.53125 L 9.9375 -21.46875 C 9.9375 -20.71875 9.695312 -20.148438 9.21875 -19.765625 C 8.738281 -19.378906 8.101562 -19.1875 7.3125 -19.1875 C 6.625 -19.1875 6.078125 -19.398438 5.671875 -19.828125 C 5.273438 -20.253906 5.078125 -20.8125 5.078125 -21.5 C 5.078125 -22.40625 5.332031 -23.296875 5.84375 -24.171875 C 6.363281 -25.046875 7.101562 -25.835938 8.0625 -26.546875 C 9.019531 -27.253906 10.191406 -27.8125 11.578125 -28.21875 C 12.972656 -28.632812 14.53125 -28.84375 16.25 -28.84375 C 19.425781 -28.84375 21.785156 -28.117188 23.328125 -26.671875 C 24.878906 -25.222656 25.65625 -23.285156 25.65625 -20.859375 L 25.65625 -3.796875 C 25.65625 -3.046875 25.789062 -2.515625 26.0625 -2.203125 C 26.34375 -1.890625 26.703125 -1.734375 27.140625 -1.734375 C 27.710938 -1.734375 28.109375 -1.859375 28.328125 -2.109375 C 28.554688 -2.359375 28.738281 -2.597656 28.875 -2.828125 C 28.976562 -2.941406 29.078125 -3.046875 29.171875 -3.140625 C 29.273438 -3.234375 29.398438 -3.28125 29.546875 -3.28125 C 29.867188 -3.28125 30.03125 -3.046875 30.03125 -2.578125 C 30.03125 -2.097656 29.875 -1.601562 29.5625 -1.09375 C 29.25 -0.582031 28.785156 -0.160156 28.171875 0.171875 C 27.566406 0.503906 26.820312 0.671875 25.9375 0.671875 C 24.613281 0.671875 23.582031 0.351562 22.84375 -0.28125 C 22.113281 -0.925781 21.707031 -1.90625 21.625 -3.21875 C 20.363281 -1.976562 18.90625 -1.019531 17.25 -0.34375 C 15.601562 0.332031 13.882812 0.671875 12.09375 0.671875 C 10.425781 0.671875 8.953125 0.394531 7.671875 -0.15625 C 6.398438 -0.71875 5.40625 -1.519531 4.6875 -2.5625 C 3.96875 -3.601562 3.609375 -4.84375 3.609375 -6.28125 Z M 8.140625 -6.921875 C 8.140625 -5.203125 8.664062 -3.867188 9.71875 -2.921875 C 10.769531 -1.984375 12.097656 -1.515625 13.703125 -1.515625 C 15.117188 -1.515625 16.492188 -1.796875 17.828125 -2.359375 C 19.160156 -2.929688 20.351562 -3.753906 21.40625 -4.828125 L 21.40625 -11.65625 C 20.539062 -11.976562 19.628906 -12.242188 18.671875 -12.453125 C 17.722656 -12.671875 16.710938 -12.78125 15.640625 -12.78125 C 13.285156 -12.78125 11.445312 -12.253906 10.125 -11.203125 C 8.800781 -10.148438 8.140625 -8.722656 8.140625 -6.921875 Z M 8.140625 -6.921875 "/></g></g></g><g fill="#1b1b1b" fill-opacity="1"><g transform="translate(96.399424, 59.614844)"><g><path d="M 4.796875 -26.265625 L 2.96875 -26.6875 C 2.425781 -26.832031 2.066406 -26.972656 1.890625 -27.109375 C 1.722656 -27.253906 1.640625 -27.429688 1.640625 -27.640625 C 1.640625 -28.117188 1.953125 -28.359375 2.578125 -28.359375 L 4.578125 -28.359375 C 5.171875 -28.359375 5.640625 -28.4375 5.984375 -28.59375 C 6.328125 -28.757812 6.578125 -29.066406 6.734375 -29.515625 L 8.296875 -33.703125 C 8.640625 -34.472656 9.070312 -34.859375 9.59375 -34.859375 C 10.1875 -34.859375 10.484375 -34.546875 10.484375 -33.921875 L 10.484375 -28.359375 L 17.15625 -28.359375 C 17.863281 -28.359375 18.21875 -28.117188 18.21875 -27.640625 C 18.21875 -27.304688 18.054688 -27.039062 17.734375 -26.84375 C 17.410156 -26.644531 16.90625 -26.546875 16.21875 -26.546875 L 10.484375 -26.546875 L 10.484375 -6.375 C 10.484375 -5.019531 10.78125 -3.976562 11.375 -3.25 C 11.96875 -2.519531 12.789062 -2.15625 13.84375 -2.15625 C 14.59375 -2.15625 15.175781 -2.257812 15.59375 -2.46875 C 16.007812 -2.6875 16.332031 -2.925781 16.5625 -3.1875 C 16.800781 -3.445312 17.003906 -3.679688 17.171875 -3.890625 C 17.347656 -4.109375 17.566406 -4.21875 17.828125 -4.21875 C 18.253906 -4.21875 18.46875 -3.957031 18.46875 -3.4375 C 18.46875 -2.84375 18.210938 -2.25 17.703125 -1.65625 C 17.191406 -1.0625 16.488281 -0.566406 15.59375 -0.171875 C 14.707031 0.222656 13.679688 0.421875 12.515625 0.421875 C 10.628906 0.421875 9.101562 -0.09375 7.9375 -1.125 C 6.769531 -2.15625 6.1875 -3.703125 6.1875 -5.765625 L 6.1875 -24.5625 C 6.1875 -25.03125 6.085938 -25.394531 5.890625 -25.65625 C 5.691406 -25.925781 5.328125 -26.128906 4.796875 -26.265625 Z M 4.796875 -26.265625 "/></g></g></g><g fill="#1b1b1b" fill-opacity="1"><g transform="translate(112.823601, 59.614844)"><g><path d="M 27.78125 -21.4375 C 27.78125 -20.6875 27.546875 -20.050781 27.078125 -19.53125 C 26.617188 -19.019531 26.015625 -18.765625 25.265625 -18.765625 C 24.535156 -18.765625 23.957031 -18.988281 23.53125 -19.4375 C 23.101562 -19.882812 22.890625 -20.484375 22.890625 -21.234375 L 22.890625 -22.140625 C 22.890625 -23.578125 22.316406 -24.757812 21.171875 -25.6875 C 20.035156 -26.625 18.441406 -27.09375 16.390625 -27.09375 C 14.554688 -27.09375 12.929688 -26.585938 11.515625 -25.578125 C 10.109375 -24.578125 9.003906 -23.191406 8.203125 -21.421875 C 7.410156 -19.648438 7.015625 -17.59375 7.015625 -15.25 C 7.015625 -12.507812 7.476562 -10.179688 8.40625 -8.265625 C 9.34375 -6.359375 10.632812 -4.90625 12.28125 -3.90625 C 13.9375 -2.914062 15.816406 -2.421875 17.921875 -2.421875 C 19.335938 -2.421875 20.628906 -2.671875 21.796875 -3.171875 C 22.972656 -3.671875 23.960938 -4.347656 24.765625 -5.203125 C 25.566406 -6.066406 26.117188 -7.035156 26.421875 -8.109375 C 26.703125 -8.617188 27.015625 -8.875 27.359375 -8.875 C 27.578125 -8.875 27.738281 -8.78125 27.84375 -8.59375 C 27.945312 -8.414062 27.988281 -8.210938 27.96875 -7.984375 C 27.800781 -6.390625 27.210938 -4.929688 26.203125 -3.609375 C 25.191406 -2.296875 23.867188 -1.253906 22.234375 -0.484375 C 20.609375 0.285156 18.765625 0.671875 16.703125 0.671875 C 13.929688 0.671875 11.503906 0.078125 9.421875 -1.109375 C 7.347656 -2.296875 5.738281 -3.972656 4.59375 -6.140625 C 3.457031 -8.304688 2.890625 -10.832031 2.890625 -13.71875 C 2.890625 -15.851562 3.226562 -17.832031 3.90625 -19.65625 C 4.582031 -21.488281 5.539062 -23.09375 6.78125 -24.46875 C 8.03125 -25.851562 9.53125 -26.929688 11.28125 -27.703125 C 13.03125 -28.484375 14.976562 -28.875 17.125 -28.875 C 19.332031 -28.875 21.226562 -28.523438 22.8125 -27.828125 C 24.40625 -27.128906 25.628906 -26.21875 26.484375 -25.09375 C 27.347656 -23.96875 27.78125 -22.75 27.78125 -21.4375 Z M 27.78125 -21.4375 "/></g></g></g><g fill="#1b1b1b" fill-opacity="1"><g transform="translate(138.599017, 59.614844)"><g><path d="M 11.390625 -43.21875 L 11.390625 -23.71875 C 12.867188 -24.96875 14.210938 -25.972656 15.421875 -26.734375 C 16.640625 -27.492188 17.796875 -28.039062 18.890625 -28.375 C 19.984375 -28.707031 21.066406 -28.875 22.140625 -28.875 C 23.835938 -28.875 25.3125 -28.523438 26.5625 -27.828125 C 27.820312 -27.128906 28.800781 -26.125 29.5 -24.8125 C 30.195312 -23.507812 30.546875 -21.953125 30.546875 -20.140625 L 30.546875 -3.671875 C 30.546875 -3.148438 30.675781 -2.742188 30.9375 -2.453125 C 31.207031 -2.171875 31.570312 -1.976562 32.03125 -1.875 L 33.53125 -1.578125 C 34.175781 -1.421875 34.5 -1.148438 34.5 -0.765625 C 34.5 -0.253906 34.132812 0 33.40625 0 L 23.375 0 C 22.632812 0 22.265625 -0.265625 22.265625 -0.796875 C 22.265625 -1.171875 22.578125 -1.441406 23.203125 -1.609375 L 24.875 -1.90625 C 25.800781 -2.09375 26.265625 -2.679688 26.265625 -3.671875 L 26.265625 -19.4375 C 26.265625 -21.707031 25.695312 -23.398438 24.5625 -24.515625 C 23.425781 -25.640625 21.929688 -26.203125 20.078125 -26.203125 C 18.941406 -26.203125 17.707031 -25.898438 16.375 -25.296875 C 15.050781 -24.691406 13.59375 -23.71875 12 -22.375 L 11.390625 -21.859375 L 11.390625 -3.515625 C 11.390625 -3.054688 11.503906 -2.695312 11.734375 -2.4375 C 11.972656 -2.1875 12.300781 -2.007812 12.71875 -1.90625 L 14.296875 -1.609375 C 14.953125 -1.441406 15.28125 -1.171875 15.28125 -0.796875 C 15.28125 -0.265625 14.90625 0 14.15625 0 L 4.15625 0 C 3.445312 0 3.09375 -0.253906 3.09375 -0.765625 C 3.09375 -1.160156 3.414062 -1.429688 4.0625 -1.578125 L 5.734375 -1.90625 C 6.648438 -2.09375 7.109375 -2.628906 7.109375 -3.515625 L 7.109375 -39.6875 C 7.109375 -40.457031 6.785156 -40.851562 6.140625 -40.875 L 3.609375 -40.9375 C 3.003906 -41 2.703125 -41.210938 2.703125 -41.578125 C 2.703125 -41.773438 2.769531 -41.929688 2.90625 -42.046875 C 3.050781 -42.171875 3.316406 -42.304688 3.703125 -42.453125 L 8.109375 -43.9375 C 9.054688 -44.28125 9.753906 -44.453125 10.203125 -44.453125 C 10.992188 -44.453125 11.390625 -44.039062 11.390625 -43.21875 Z M 11.390625 -43.21875 "/></g></g></g></g></g><g transform="matrix(1, 0, 0, 1, 76, 212)"><g clip-path="url(#886c9f1eb9)"><g fill="#1b1b1b" fill-opacity="1"><g transform="translate(1.693849, 12.065321)"><g><path d="M 1.933594 -4.828125 L 2.132812 -7.867188 L 0.640625 -7.867188 L 0.851562 -4.828125 Z M 4.296875 -4.828125 L 4.496094 -7.867188 L 3.003906 -7.867188 L 3.214844 -4.828125 Z M 4.296875 -4.828125 "/></g></g></g><g fill="#1b1b1b" fill-opacity="1"><g transform="translate(6.840194, 12.065321)"><g><path d="M 8.363281 -4.695312 C 8.121094 -3.722656 7.867188 -2.683594 7.644531 -1.691406 C 7.445312 -2.683594 7.226562 -3.722656 6.984375 -4.707031 L 6.175781 -7.867188 L 4.640625 -7.867188 L 3.832031 -4.707031 C 3.601562 -3.722656 3.371094 -2.695312 3.160156 -1.703125 C 2.949219 -2.695312 2.683594 -3.722656 2.441406 -4.695312 L 1.625 -7.867188 L 0.0664062 -7.867188 L 2.253906 0 L 3.921875 0 L 4.761719 -3.269531 C 4.992188 -4.175781 5.214844 -5.125 5.402344 -6.054688 C 5.589844 -5.125 5.824219 -4.175781 6.042969 -3.269531 L 6.882812 0 L 8.5625 0 L 10.738281 -7.867188 L 9.191406 -7.867188 Z M 8.363281 -4.695312 "/></g></g></g><g fill="#1b1b1b" fill-opacity="1"><g transform="translate(17.640897, 12.065321)"><g><path d="M 6.441406 -7.867188 L 0.640625 -7.867188 L 0.640625 0 L 6.417969 0 L 6.417969 -1.335938 L 2.132812 -1.335938 L 2.132812 -3.390625 L 6.03125 -3.390625 L 6.03125 -4.671875 L 2.132812 -4.671875 L 2.132812 -6.53125 L 6.441406 -6.53125 Z M 6.441406 -7.867188 "/></g></g></g><g fill="#1b1b1b" fill-opacity="1"><g transform="translate(24.355447, 12.065321)"><g/></g></g><g fill="#1b1b1b" fill-opacity="1"><g transform="translate(26.740883, 12.065321)"><g><path d="M 3.644531 -7.867188 L 0.640625 -7.867188 L 0.640625 0 L 3.644531 0 C 6.210938 0 7.589844 -1.535156 7.589844 -3.933594 C 7.589844 -6.332031 6.210938 -7.867188 3.644531 -7.867188 Z M 2.132812 -1.28125 L 2.132812 -6.585938 L 3.625 -6.585938 C 5.148438 -6.585938 6.042969 -5.679688 6.042969 -3.933594 C 6.042969 -2.1875 5.148438 -1.28125 3.625 -1.28125 Z M 2.132812 -1.28125 "/></g></g></g><g fill="#1b1b1b" fill-opacity="1"><g transform="translate(34.648151, 12.065321)"><g><path d="M 4.242188 0.175781 C 6.597656 0.175781 8.164062 -1.457031 8.164062 -3.933594 C 8.164062 -6.410156 6.597656 -8.042969 4.242188 -8.042969 C 1.878906 -8.042969 0.308594 -6.410156 0.308594 -3.933594 C 0.308594 -1.457031 1.878906 0.175781 4.242188 0.175781 Z M 4.242188 -1.136719 C 2.804688 -1.136719 1.867188 -2.199219 1.867188 -3.933594 C 1.867188 -5.667969 2.804688 -6.730469 4.242188 -6.730469 C 5.679688 -6.730469 6.617188 -5.667969 6.617188 -3.933594 C 6.617188 -2.199219 5.679688 -1.136719 4.242188 -1.136719 Z M 4.242188 -1.136719 "/></g></g></g><g fill="#1b1b1b" fill-opacity="1"><g transform="translate(43.129689, 12.065321)"><g><path d="M 5.84375 -5.8125 C 5.84375 -4.652344 5.855469 -3.390625 5.890625 -2 C 5.492188 -2.738281 4.9375 -3.644531 4.496094 -4.363281 L 2.296875 -7.867188 L 0.640625 -7.867188 L 0.640625 0 L 2.078125 0 L 2.078125 -2.054688 C 2.078125 -3.214844 2.078125 -4.476562 2.03125 -5.867188 C 2.429688 -5.105469 2.9375 -4.285156 3.4375 -3.503906 L 5.625 0 L 7.28125 0 L 7.28125 -7.867188 L 5.84375 -7.867188 Z M 5.84375 -5.8125 "/></g></g></g><g fill="#1b1b1b" fill-opacity="1"><g transform="translate(51.059047, 12.065321)"><g><path d="M 1.933594 -4.828125 L 2.132812 -7.867188 L 0.640625 -7.867188 L 0.851562 -4.828125 Z M 1.933594 -4.828125 "/></g></g></g><g fill="#1b1b1b" fill-opacity="1"><g transform="translate(53.842046, 12.065321)"><g><path d="M 0.175781 -7.867188 L 0.175781 -6.53125 L 2.695312 -6.53125 L 2.695312 0 L 4.199219 0 L 4.199219 -6.53125 L 6.71875 -6.53125 L 6.71875 -7.867188 Z M 0.175781 -7.867188 "/></g></g></g><g fill="#1b1b1b" fill-opacity="1"><g transform="translate(60.733302, 12.065321)"><g/></g></g><g fill="#1b1b1b" fill-opacity="1"><g transform="translate(63.118738, 12.065321)"><g><path d="M 2.882812 0.175781 C 4.597656 0.175781 5.523438 -0.863281 5.523438 -2.296875 L 5.523438 -7.867188 L 4.042969 -7.867188 L 4.042969 -2.332031 C 4.042969 -1.546875 3.589844 -1.136719 2.871094 -1.136719 C 2.164062 -1.136719 1.710938 -1.546875 1.710938 -2.332031 L 1.710938 -2.804688 L 0.289062 -2.804688 L 0.289062 -2.296875 C 0.289062 -0.785156 1.25 0.175781 2.882812 0.175781 Z M 2.882812 0.175781 "/></g></g></g><g fill="#1b1b1b" fill-opacity="1"><g transform="translate(69.181711, 12.065321)"><g><path d="M 3.824219 0.164062 C 5.84375 0.164062 7.117188 -0.917969 7.117188 -2.960938 L 7.117188 -7.867188 L 5.625 -7.867188 L 5.625 -2.972656 C 5.625 -1.734375 4.949219 -1.148438 3.824219 -1.148438 C 2.695312 -1.148438 2.023438 -1.734375 2.023438 -2.972656 L 2.023438 -7.867188 L 0.53125 -7.867188 L 0.53125 -2.960938 C 0.53125 -0.917969 1.84375 0.164062 3.824219 0.164062 Z M 3.824219 0.164062 "/></g></g></g><g fill="#1b1b1b" fill-opacity="1"><g transform="translate(76.823927, 12.065321)"><g><path d="M 3.636719 0.175781 C 5.601562 0.175781 6.816406 -0.683594 6.816406 -2.242188 C 6.816406 -3.492188 6.066406 -4.210938 4.210938 -4.574219 L 3.523438 -4.707031 C 2.351562 -4.949219 1.988281 -5.238281 1.988281 -5.867188 C 1.988281 -6.464844 2.453125 -6.839844 3.402344 -6.839844 C 4.652344 -6.839844 5.082031 -6.363281 5.136719 -5.523438 L 6.585938 -5.523438 C 6.53125 -7.003906 5.589844 -8.042969 3.382812 -8.042969 C 1.492188 -8.042969 0.464844 -7.125 0.464844 -5.824219 C 0.464844 -4.398438 1.46875 -3.722656 2.996094 -3.4375 L 3.65625 -3.304688 C 4.863281 -3.058594 5.269531 -2.785156 5.269531 -2.164062 C 5.269531 -1.425781 4.707031 -1.027344 3.625 -1.027344 C 2.574219 -1.027344 1.757812 -1.359375 1.734375 -2.597656 L 0.265625 -2.597656 C 0.277344 -0.785156 1.535156 0.175781 3.636719 0.175781 Z M 3.636719 0.175781 "/></g></g></g><g fill="#1b1b1b" fill-opacity="1"><g transform="translate(83.449935, 12.065321)"><g><path d="M 0.175781 -7.867188 L 0.175781 -6.53125 L 2.695312 -6.53125 L 2.695312 0 L 4.199219 0 L 4.199219 -6.53125 L 6.71875 -6.53125 L 6.71875 -7.867188 Z M 0.175781 -7.867188 "/></g></g></g><g fill="#1b1b1b" fill-opacity="1"><g transform="translate(90.341191, 12.065321)"><g/></g></g><g fill="#1b1b1b" fill-opacity="1"><g transform="translate(92.726627, 12.065321)"><g><path d="M 8.363281 -4.695312 C 8.121094 -3.722656 7.867188 -2.683594 7.644531 -1.691406 C 7.445312 -2.683594 7.226562 -3.722656 6.984375 -4.707031 L 6.175781 -7.867188 L 4.640625 -7.867188 L 3.832031 -4.707031 C 3.601562 -3.722656 3.371094 -2.695312 3.160156 -1.703125 C 2.949219 -2.695312 2.683594 -3.722656 2.441406 -4.695312 L 1.625 -7.867188 L 0.0664062 -7.867188 L 2.253906 0 L 3.921875 0 L 4.761719 -3.269531 C 4.992188 -4.175781 5.214844 -5.125 5.402344 -6.054688 C 5.589844 -5.125 5.824219 -4.175781 6.042969 -3.269531 L 6.882812 0 L 8.5625 0 L 10.738281 -7.867188 L 9.191406 -7.867188 Z M 8.363281 -4.695312 "/></g></g></g><g fill="#1b1b1b" fill-opacity="1"><g transform="translate(102.566072, 12.065321)"><g><path d="M 7.855469 0 L 4.804688 -7.867188 L 3.058594 -7.867188 L 0.0664062 0 L 1.601562 0 L 2.210938 -1.734375 L 5.65625 -1.734375 L 6.277344 0 Z M 2.960938 -3.855469 C 3.226562 -4.574219 3.601562 -5.625 3.921875 -6.550781 C 4.242188 -5.625 4.617188 -4.574219 4.894531 -3.855469 L 5.203125 -3.003906 L 2.664062 -3.003906 Z M 2.960938 -3.855469 "/></g></g></g><g fill="#1b1b1b" fill-opacity="1"><g transform="translate(109.158515, 12.065321)"><g><path d="M 0.175781 -7.867188 L 0.175781 -6.53125 L 2.695312 -6.53125 L 2.695312 0 L 4.199219 0 L 4.199219 -6.53125 L 6.71875 -6.53125 L 6.71875 -7.867188 Z M 0.175781 -7.867188 "/></g></g></g><g fill="#1b1b1b" fill-opacity="1"><g transform="translate(115.475235, 12.065321)"><g><path d="M 4.121094 0.175781 C 5.921875 0.175781 7.503906 -0.882812 7.722656 -2.960938 L 6.230469 -2.960938 C 6.054688 -1.734375 5.125 -1.136719 4.121094 -1.136719 C 2.71875 -1.136719 1.867188 -2.175781 1.867188 -3.933594 C 1.867188 -5.679688 2.71875 -6.730469 4.121094 -6.730469 C 5.082031 -6.730469 5.890625 -6.253906 6.175781 -5.160156 L 7.691406 -5.160156 C 7.347656 -7.105469 5.867188 -8.042969 4.121094 -8.042969 C 1.84375 -8.042969 0.308594 -6.476562 0.308594 -3.933594 C 0.308594 -1.390625 1.878906 0.175781 4.121094 0.175781 Z M 4.121094 0.175781 "/></g></g></g><g fill="#1b1b1b" fill-opacity="1"><g transform="translate(123.481901, 12.065321)"><g><path d="M 5.789062 -4.707031 L 2.132812 -4.707031 L 2.132812 -7.867188 L 0.640625 -7.867188 L 0.640625 0 L 2.132812 0 L 2.132812 -3.371094 L 5.789062 -3.371094 L 5.789062 0 L 7.28125 0 L 7.28125 -7.867188 L 5.789062 -7.867188 Z M 5.789062 -4.707031 "/></g></g></g><g fill="#1b1b1b" fill-opacity="1"><g transform="translate(131.400207, 12.065321)"><g><path d="M 10.375 -2.507812 L 10.375 -3.703125 L 0.363281 -3.703125 L 0.363281 -2.507812 Z M 10.375 -2.507812 "/></g></g></g><g fill="#1b1b1b" fill-opacity="1"><g transform="translate(141.836334, 12.065321)"><g><path d="M 8.363281 -4.695312 C 8.121094 -3.722656 7.867188 -2.683594 7.644531 -1.691406 C 7.445312 -2.683594 7.226562 -3.722656 6.984375 -4.707031 L 6.175781 -7.867188 L 4.640625 -7.867188 L 3.832031 -4.707031 C 3.601562 -3.722656 3.371094 -2.695312 3.160156 -1.703125 C 2.949219 -2.695312 2.683594 -3.722656 2.441406 -4.695312 L 1.625 -7.867188 L 0.0664062 -7.867188 L 2.253906 0 L 3.921875 0 L 4.761719 -3.269531 C 4.992188 -4.175781 5.214844 -5.125 5.402344 -6.054688 C 5.589844 -5.125 5.824219 -4.175781 6.042969 -3.269531 L 6.882812 0 L 8.5625 0 L 10.738281 -7.867188 L 9.191406 -7.867188 Z M 8.363281 -4.695312 "/></g></g></g><g fill="#1b1b1b" fill-opacity="1"><g transform="translate(152.637038, 12.065321)"><g><path d="M 6.441406 -7.867188 L 0.640625 -7.867188 L 0.640625 0 L 6.417969 0 L 6.417969 -1.335938 L 2.132812 -1.335938 L 2.132812 -3.390625 L 6.03125 -3.390625 L 6.03125 -4.671875 L 2.132812 -4.671875 L 2.132812 -6.53125 L 6.441406 -6.53125 Z M 6.441406 -7.867188 "/></g></g></g><g fill="#1b1b1b" fill-opacity="1"><g transform="translate(159.351588, 12.065321)"><g/></g></g><g fill="#1b1b1b" fill-opacity="1"><g transform="translate(161.737024, 12.065321)"><g><path d="M 3.644531 -7.867188 L 0.640625 -7.867188 L 0.640625 0 L 3.644531 0 C 6.210938 0 7.589844 -1.535156 7.589844 -3.933594 C 7.589844 -6.332031 6.210938 -7.867188 3.644531 -7.867188 Z M 2.132812 -1.28125 L 2.132812 -6.585938 L 3.625 -6.585938 C 5.148438 -6.585938 6.042969 -5.679688 6.042969 -3.933594 C 6.042969 -2.1875 5.148438 -1.28125 3.625 -1.28125 Z M 2.132812 -1.28125 "/></g></g></g><g fill="#1b1b1b" fill-opacity="1"><g transform="translate(169.644292, 12.065321)"><g><path d="M 2.132812 0 L 2.132812 -7.867188 L 0.640625 -7.867188 L 0.640625 0 Z M 2.132812 0 "/></g></g></g><g fill="#1b1b1b" fill-opacity="1"><g transform="translate(172.427291, 12.065321)"><g><path d="M 3.636719 0.175781 C 5.601562 0.175781 6.816406 -0.683594 6.816406 -2.242188 C 6.816406 -3.492188 6.066406 -4.210938 4.210938 -4.574219 L 3.523438 -4.707031 C 2.351562 -4.949219 1.988281 -5.238281 1.988281 -5.867188 C 1.988281 -6.464844 2.453125 -6.839844 3.402344 -6.839844 C 4.652344 -6.839844 5.082031 -6.363281 5.136719 -5.523438 L 6.585938 -5.523438 C 6.53125 -7.003906 5.589844 -8.042969 3.382812 -8.042969 C 1.492188 -8.042969 0.464844 -7.125 0.464844 -5.824219 C 0.464844 -4.398438 1.46875 -3.722656 2.996094 -3.4375 L 3.65625 -3.304688 C 4.863281 -3.058594 5.269531 -2.785156 5.269531 -2.164062 C 5.269531 -1.425781 4.707031 -1.027344 3.625 -1.027344 C 2.574219 -1.027344 1.757812 -1.359375 1.734375 -2.597656 L 0.265625 -2.597656 C 0.277344 -0.785156 1.535156 0.175781 3.636719 0.175781 Z M 3.636719 0.175781 "/></g></g></g><g fill="#1b1b1b" fill-opacity="1"><g transform="translate(179.462111, 12.065321)"><g><path d="M 4.097656 -7.867188 L 0.640625 -7.867188 L 0.640625 0 L 2.132812 0 L 2.132812 -2.75 L 4.097656 -2.75 C 5.910156 -2.75 6.882812 -3.789062 6.882812 -5.304688 C 6.882812 -6.828125 5.910156 -7.867188 4.097656 -7.867188 Z M 2.132812 -4.03125 L 2.132812 -6.585938 L 4.03125 -6.585938 C 4.90625 -6.585938 5.378906 -6.121094 5.378906 -5.304688 C 5.378906 -4.484375 4.90625 -4.03125 4.03125 -4.03125 Z M 2.132812 -4.03125 "/></g></g></g><g fill="#1b1b1b" fill-opacity="1"><g transform="translate(185.579796, 12.065321)"><g><path d="M 7.855469 0 L 4.804688 -7.867188 L 3.058594 -7.867188 L 0.0664062 0 L 1.601562 0 L 2.210938 -1.734375 L 5.65625 -1.734375 L 6.277344 0 Z M 2.960938 -3.855469 C 3.226562 -4.574219 3.601562 -5.625 3.921875 -6.550781 C 4.242188 -5.625 4.617188 -4.574219 4.894531 -3.855469 L 5.203125 -3.003906 L 2.664062 -3.003906 Z M 2.960938 -3.855469 "/></g></g></g><g fill="#1b1b1b" fill-opacity="1"><g transform="translate(192.172239, 12.065321)"><g><path d="M 0.175781 -7.867188 L 0.175781 -6.53125 L 2.695312 -6.53125 L 2.695312 0 L 4.199219 0 L 4.199219 -6.53125 L 6.71875 -6.53125 L 6.71875 -7.867188 Z M 0.175781 -7.867188 "/></g></g></g><g fill="#1b1b1b" fill-opacity="1"><g transform="translate(198.488959, 12.065321)"><g><path d="M 4.121094 0.175781 C 5.921875 0.175781 7.503906 -0.882812 7.722656 -2.960938 L 6.230469 -2.960938 C 6.054688 -1.734375 5.125 -1.136719 4.121094 -1.136719 C 2.71875 -1.136719 1.867188 -2.175781 1.867188 -3.933594 C 1.867188 -5.679688 2.71875 -6.730469 4.121094 -6.730469 C 5.082031 -6.730469 5.890625 -6.253906 6.175781 -5.160156 L 7.691406 -5.160156 C 7.347656 -7.105469 5.867188 -8.042969 4.121094 -8.042969 C 1.84375 -8.042969 0.308594 -6.476562 0.308594 -3.933594 C 0.308594 -1.390625 1.878906 0.175781 4.121094 0.175781 Z M 4.121094 0.175781 "/></g></g></g><g fill="#1b1b1b" fill-opacity="1"><g transform="translate(206.495625, 12.065321)"><g><path d="M 5.789062 -4.707031 L 2.132812 -4.707031 L 2.132812 -7.867188 L 0.640625 -7.867188 L 0.640625 0 L 2.132812 0 L 2.132812 -3.371094 L 5.789062 -3.371094 L 5.789062 0 L 7.28125 0 L 7.28125 -7.867188 L 5.789062 -7.867188 Z M 5.789062 -4.707031 "/></g></g></g><g fill="#1b1b1b" fill-opacity="1"><g transform="translate(214.347633, 12.065321)"><g><path d="M 2.042969 0 L 2.042969 -1.578125 L 0.417969 -1.578125 L 0.417969 0 Z M 2.042969 0 "/></g></g></g><g fill="#1b1b1b" fill-opacity="1"><g transform="translate(216.147439, 12.065321)"><g><path d="M 1.933594 -4.828125 L 2.132812 -7.867188 L 0.640625 -7.867188 L 0.851562 -4.828125 Z M 4.296875 -4.828125 L 4.496094 -7.867188 L 3.003906 -7.867188 L 3.214844 -4.828125 Z M 4.296875 -4.828125 "/></g></g></g></g></g></svg>