<svg xmlns="http://www.w3.org/2000/svg" xmlns:xlink="http://www.w3.org/1999/xlink" width="310" zoomAndPan="magnify" viewBox="8 108 310 150" height="150" preserveAspectRatio="xMidYMid meet" version="1.0"><defs><g/><clipPath id="e207a7a5b8"><rect x="0" width="148" y="0" height="244"/></clipPath><clipPath id="d00251c875"><path d="M 42 159.664062 L 187 159.664062 L 187 179 L 42 179 Z M 42 159.664062 " clip-rule="nonzero"/></clipPath><clipPath id="d48b77f9b6"><path d="M 15.03125 177 L 185 177 L 185 218 L 15.03125 218 Z M 15.03125 177 " clip-rule="nonzero"/></clipPath><clipPath id="701af41b67"><path d="M 55 200 L 187.53125 200 L 187.53125 230.914062 L 55 230.914062 Z M 55 200 " clip-rule="nonzero"/></clipPath></defs><g transform="matrix(1, 0, 0, 1, 168, 62)"><g clip-path="url(#e207a7a5b8)"><g fill="#ffffff" fill-opacity="1"><g transform="translate(1.015395, 191.543612)"><g><path d="M 1.875 -2.65625 C 1.875 -4.238281 3.351562 -5.257812 6.3125 -5.71875 L 12.421875 -6.703125 C 14.253906 -6.960938 15.894531 -7.734375 17.34375 -9.015625 C 18.789062 -10.296875 20.035156 -12.476562 21.078125 -15.5625 C 21.742188 -18.394531 22.664062 -22.109375 23.84375 -26.703125 C 25.03125 -31.296875 26.410156 -36.453125 27.984375 -42.171875 C 29.554688 -47.890625 31.210938 -53.882812 32.953125 -60.15625 C 34.691406 -66.425781 36.429688 -72.710938 38.171875 -79.015625 C 39.921875 -85.328125 41.550781 -91.351562 43.0625 -97.09375 C 44.570312 -102.84375 45.882812 -108.050781 47 -112.71875 C 48.113281 -117.382812 48.9375 -121.160156 49.46875 -124.046875 C 49.988281 -126.148438 49.953125 -127.742188 49.359375 -128.828125 C 48.773438 -129.910156 47.492188 -130.648438 45.515625 -131.046875 L 39.90625 -132.234375 C 38.332031 -132.554688 37.25 -132.914062 36.65625 -133.3125 C 36.0625 -133.707031 35.765625 -134.332031 35.765625 -135.1875 C 35.765625 -137.019531 37.34375 -137.9375 40.5 -137.9375 L 85.71875 -137.9375 C 92.75 -137.9375 99.332031 -136.898438 105.46875 -134.828125 C 111.613281 -132.765625 117.132812 -129.796875 122.03125 -125.921875 C 126.925781 -122.046875 130.984375 -117.347656 134.203125 -111.828125 C 137.421875 -106.316406 139.617188 -100.09375 140.796875 -93.15625 C 141.984375 -86.226562 141.953125 -78.691406 140.703125 -70.546875 C 138.929688 -59.515625 135.515625 -49.628906 130.453125 -40.890625 C 125.398438 -32.148438 119.046875 -24.742188 111.390625 -18.671875 C 103.734375 -12.597656 95.007812 -7.96875 85.21875 -4.78125 C 75.4375 -1.59375 64.929688 0 53.703125 0 L 5.328125 0 C 4.003906 0 3.097656 -0.242188 2.609375 -0.734375 C 2.117188 -1.234375 1.875 -1.875 1.875 -2.65625 Z M 54.875 -6.109375 C 64.070312 -6.109375 72.613281 -7.601562 80.5 -10.59375 C 88.382812 -13.582031 95.410156 -17.898438 101.578125 -23.546875 C 107.753906 -29.191406 112.863281 -36.003906 116.90625 -43.984375 C 120.945312 -51.972656 123.722656 -60.957031 125.234375 -70.9375 C 126.742188 -80.789062 126.675781 -89.523438 125.03125 -97.140625 C 123.394531 -104.765625 120.585938 -111.1875 116.609375 -116.40625 C 112.640625 -121.632812 107.910156 -125.59375 102.421875 -128.28125 C 96.941406 -130.976562 91.144531 -132.328125 85.03125 -132.328125 L 72.90625 -132.328125 C 69.101562 -132.328125 66.546875 -130.257812 65.234375 -126.125 C 64.640625 -123.226562 63.703125 -119.398438 62.421875 -114.640625 C 61.140625 -109.878906 59.660156 -104.492188 57.984375 -98.484375 C 56.304688 -92.472656 54.546875 -86.179688 52.703125 -79.609375 C 50.867188 -73.046875 49.03125 -66.476562 47.1875 -59.90625 C 45.351562 -53.332031 43.644531 -47.070312 42.0625 -41.125 C 40.488281 -35.1875 39.144531 -29.851562 38.03125 -25.125 C 36.914062 -20.394531 36.160156 -16.617188 35.765625 -13.796875 C 35.367188 -11.171875 35.597656 -9.234375 36.453125 -7.984375 C 37.304688 -6.734375 38.914062 -6.109375 41.28125 -6.109375 Z M 54.875 -6.109375 "/></g></g></g></g></g><g clip-path="url(#d00251c875)"><path fill="#ffffff" d="M 48.894531 178.28125 C 51.027344 177.625 53.164062 176.988281 55.304688 176.371094 C 54.859375 176.5 55.480469 176.324219 55.621094 176.28125 C 55.878906 176.207031 56.136719 176.136719 56.394531 176.0625 C 56.953125 175.90625 57.511719 175.75 58.070312 175.59375 C 59.144531 175.296875 60.21875 175.003906 61.296875 174.714844 C 65.648438 173.550781 70.023438 172.464844 74.414062 171.464844 C 78.761719 170.46875 83.128906 169.554688 87.507812 168.722656 C 89.699219 168.304688 91.894531 167.90625 94.09375 167.53125 C 95.191406 167.339844 96.292969 167.15625 97.390625 166.976562 C 97.921875 166.890625 98.449219 166.808594 98.976562 166.722656 C 99.613281 166.625 98.558594 166.789062 99.191406 166.691406 C 99.5 166.644531 99.808594 166.59375 100.117188 166.546875 C 108.980469 165.195312 117.894531 164.167969 126.832031 163.464844 C 129.054688 163.289062 131.28125 163.132812 133.503906 163 C 134.617188 162.933594 135.730469 162.871094 136.847656 162.8125 C 136.96875 162.804688 137.128906 162.820312 137.246094 162.792969 C 137.230469 162.796875 136.566406 162.824219 136.976562 162.804688 C 137.246094 162.792969 137.511719 162.78125 137.777344 162.765625 C 138.359375 162.742188 138.9375 162.714844 139.515625 162.691406 C 143.972656 162.503906 148.433594 162.398438 152.894531 162.375 C 157.398438 162.351562 161.902344 162.410156 166.40625 162.550781 C 167.519531 162.585938 168.636719 162.625 169.75 162.671875 C 170.285156 162.695312 170.820312 162.714844 171.351562 162.742188 C 171.621094 162.753906 171.886719 162.765625 172.15625 162.777344 C 172.289062 162.785156 172.421875 162.789062 172.554688 162.796875 C 172.648438 162.800781 173.257812 162.832031 172.753906 162.804688 C 172.261719 162.78125 173.089844 162.824219 173.222656 162.832031 C 173.488281 162.84375 173.757812 162.859375 174.023438 162.875 C 174.601562 162.90625 175.179688 162.9375 175.761719 162.972656 C 176.875 163.039062 177.984375 163.109375 179.097656 163.1875 C 180.210938 163.265625 181.324219 163.347656 182.433594 163.433594 C 183.332031 163.503906 184.269531 163.5 185.152344 163.300781 C 185.613281 163.195312 186.484375 162.972656 186.777344 162.515625 C 187.507812 161.382812 184.828125 160.945312 184.3125 160.902344 C 175.015625 160.179688 165.695312 159.789062 156.371094 159.75 C 147.09375 159.714844 137.8125 160.03125 128.558594 160.667969 C 119.480469 161.296875 110.425781 162.257812 101.417969 163.550781 C 92.21875 164.871094 83.066406 166.507812 73.984375 168.496094 C 64.941406 170.480469 55.976562 172.8125 47.105469 175.457031 C 46.039062 175.777344 44.96875 176.101562 43.902344 176.429688 C 43.5625 176.53125 42.871094 176.890625 42.871094 177.355469 C 42.871094 177.832031 43.5625 178.160156 43.902344 178.28125 C 45.484375 178.847656 47.308594 178.769531 48.894531 178.28125 Z M 48.894531 178.28125 " fill-opacity="1" fill-rule="nonzero"/></g><g clip-path="url(#d48b77f9b6)"><path fill="#ffffff" d="M 21.0625 216.917969 C 25.949219 214.535156 30.894531 212.257812 35.886719 210.101562 C 38.382812 209.023438 40.890625 207.972656 43.414062 206.949219 C 44.648438 206.449219 45.890625 205.957031 47.132812 205.46875 C 47.777344 205.214844 48.421875 204.964844 49.070312 204.714844 C 48.679688 204.867188 49.355469 204.605469 49.464844 204.566406 C 49.832031 204.425781 50.203125 204.285156 50.574219 204.144531 C 60.75 200.300781 71.101562 196.917969 81.585938 194.015625 C 86.78125 192.574219 92.007812 191.25 97.261719 190.046875 C 98.609375 189.738281 99.960938 189.433594 101.316406 189.140625 C 101.941406 189.003906 102.570312 188.871094 103.199219 188.734375 C 103.238281 188.726562 103.722656 188.625 103.359375 188.703125 C 102.964844 188.785156 103.574219 188.65625 103.664062 188.640625 C 104.003906 188.570312 104.34375 188.5 104.679688 188.429688 C 107.347656 187.882812 110.015625 187.367188 112.691406 186.882812 C 123.398438 184.941406 134.191406 183.484375 145.027344 182.519531 C 146.355469 182.402344 147.6875 182.289062 149.019531 182.1875 C 149.707031 182.132812 150.398438 182.082031 151.089844 182.03125 C 151.382812 182.011719 151.679688 181.992188 151.976562 181.96875 C 152.175781 181.957031 152.371094 181.941406 152.570312 181.929688 C 152.257812 181.949219 152.132812 181.957031 152.519531 181.933594 C 155.234375 181.757812 157.949219 181.613281 160.664062 181.496094 C 166.101562 181.269531 171.539062 181.164062 176.980469 181.1875 C 178.316406 181.191406 179.648438 181.207031 180.984375 181.226562 C 182.007812 181.242188 184.515625 180.917969 184.515625 179.46875 C 184.515625 178.007812 181.941406 177.726562 180.984375 177.714844 C 169.792969 177.542969 158.597656 177.921875 147.4375 178.777344 C 136.492188 179.617188 125.585938 180.960938 114.761719 182.800781 C 103.753906 184.671875 92.824219 187.035156 82.03125 189.894531 C 71.421875 192.703125 60.9375 196 50.625 199.765625 C 40.167969 203.589844 29.878906 207.867188 19.816406 212.632812 C 18.5625 213.226562 17.316406 213.828125 16.070312 214.433594 C 15.621094 214.652344 15.039062 215.105469 15.039062 215.675781 C 15.039062 216.242188 15.621094 216.703125 16.070312 216.917969 C 17.550781 217.617188 19.582031 217.640625 21.0625 216.917969 Z M 21.0625 216.917969 " fill-opacity="1" fill-rule="nonzero"/></g><g clip-path="url(#701af41b67)"><path fill="#ffffff" d="M 60.324219 229.988281 C 68.183594 227.125 76.128906 224.484375 84.140625 222.078125 C 88.105469 220.886719 92.089844 219.753906 96.085938 218.675781 C 98.105469 218.132812 100.128906 217.605469 102.15625 217.089844 C 103.105469 216.847656 104.054688 216.609375 105.007812 216.375 C 105.132812 216.34375 106.007812 216.125 105.199219 216.328125 C 105.460938 216.261719 105.71875 216.199219 105.980469 216.136719 C 106.5 216.011719 107.015625 215.886719 107.535156 215.761719 C 123.730469 211.902344 140.144531 208.972656 156.671875 206.988281 C 161.265625 206.4375 165.871094 205.960938 170.484375 205.558594 C 171.636719 205.457031 172.789062 205.363281 173.941406 205.269531 C 174.859375 205.195312 173.152344 205.328125 174.070312 205.257812 C 174.425781 205.230469 174.78125 205.203125 175.132812 205.175781 C 175.667969 205.136719 176.199219 205.097656 176.734375 205.0625 C 179.128906 204.890625 181.527344 204.742188 183.929688 204.613281 C 185.113281 204.546875 187.457031 204.183594 187.457031 202.566406 C 187.457031 201.035156 185.070312 200.457031 183.929688 200.519531 C 166.90625 201.441406 149.933594 203.316406 133.128906 206.195312 C 116.4375 209.054688 99.90625 212.882812 83.652344 217.632812 C 74.597656 220.277344 65.625 223.222656 56.761719 226.453125 C 55.644531 226.859375 54.28125 228.121094 55.496094 229.253906 C 56.683594 230.367188 58.84375 230.527344 60.324219 229.988281 Z M 60.324219 229.988281 " fill-opacity="1" fill-rule="nonzero"/></g></svg>
